<svg width="600" height="600" viewBox="0 0 600 600" fill="none" xmlns="http://www.w3.org/2000/svg">
  <rect width="600" height="600" fill="#000000"/>

  <g>
    <rect x="248" y="104" width="104" height="392" rx="8" fill="#F4F4F4"/>
    <rect x="118" y="240" width="364" height="104" rx="8" fill="#F4F4F4"/>

    <path d="M170 292C179 223 213 185 262 170C307 156 357 177 390 214C420 246 427 291 414 332C400 377 357 412 311 422C269 431 208 416 176 376C140 333 155 299 170 292Z" stroke="#000000" stroke-width="10" stroke-linecap="round" stroke-linejoin="round"/>

    <path d="M178 304C208 246 248 220 290 220C331 220 363 244 383 281C394 304 393 332 375 350C360 365 337 370 316 368C286 365 264 352 244 334C221 315 194 316 178 304Z" stroke="#000000" stroke-width="9" stroke-linecap="round" stroke-linejoin="round"/>

    <path d="M196 191C210 176 226 166 246 160" stroke="#000000" stroke-width="7" stroke-linecap="round"/>
    <path d="M240 157C250 138 264 127 282 120" stroke="#000000" stroke-width="7" stroke-linecap="round"/>
    <path d="M292 117C306 118 321 124 334 132" stroke="#000000" stroke-width="7" stroke-linecap="round"/>
    <path d="M350 140C367 151 382 166 394 186" stroke="#000000" stroke-width="7" stroke-linecap="round"/>
    <path d="M402 202C418 218 432 238 438 260" stroke="#000000" stroke-width="7" stroke-linecap="round"/>

    <g stroke="#000000" stroke-width="6" stroke-linecap="round" stroke-linejoin="round">
      <path d="M197 276L197 245"/>
      <path d="M220 270L220 236"/>
      <path d="M243 267L243 228"/>
      <path d="M266 267L266 228"/>
      <path d="M288 271L288 233"/>
      <path d="M312 278L312 239"/>
      <path d="M336 287L336 248"/>
      <path d="M360 301L360 262"/>
      <path d="M382 321L382 283"/>
      <path d="M382 345L382 314"/>
      <path d="M361 356L361 329"/>
      <path d="M337 366L337 341"/>
      <path d="M312 370L312 347"/>
      <path d="M285 363L285 338"/>
      <path d="M256 354L256 328"/>
      <path d="M229 344L229 318"/>
      <path d="M207 325L207 298"/>
    </g>

    <g fill="#000000">
      <circle cx="197" cy="276" r="5"/>
      <circle cx="220" cy="270" r="5"/>
      <circle cx="243" cy="267" r="5"/>
      <circle cx="266" cy="267" r="5"/>
      <circle cx="288" cy="271" r="5"/>
      <circle cx="312" cy="278" r="5"/>
      <circle cx="336" cy="287" r="5"/>
      <circle cx="360" cy="301" r="5"/>
      <circle cx="382" cy="321" r="5"/>
      <circle cx="382" cy="345" r="5"/>
      <circle cx="361" cy="356" r="5"/>
      <circle cx="337" cy="366" r="5"/>
      <circle cx="312" cy="370" r="5"/>
      <circle cx="285" cy="363" r="5"/>
      <circle cx="256" cy="354" r="5"/>
      <circle cx="229" cy="344" r="5"/>
      <circle cx="207" cy="325" r="5"/>
    </g>
  </g>
</svg>
